<svg width="88" height="88" viewBox="0 0 88 88" fill="none" xmlns="http://www.w3.org/2000/svg">
<g id="6127246_multimedia_music_play_player_video_icon 1" clip-path="url(#clip0_145_129)">
<g id="Layer 2">
<g id="Interface-Solid">
<g id="interface-solid-multimedia-play-button">
<path id="Vector" d="M44 0C35.2976 0 26.7907 2.58056 19.5549 7.41534C12.3192 12.2501 6.67958 19.122 3.34932 27.1619C0.0190646 35.2019 -0.852282 44.0488 0.845468 52.584C2.54322 61.1191 6.73381 68.9592 12.8873 75.1127C19.0408 81.2662 26.8809 85.4568 35.416 87.1546C43.9512 88.8523 52.7981 87.981 60.8381 84.6507C68.878 81.3204 75.7499 75.6809 80.5847 68.4451C85.4195 61.2093 88 52.7024 88 44C87.987 32.3345 83.3472 21.1504 75.0984 12.9016C66.8496 4.65285 55.6656 0.0129815 44 0ZM56.8939 46.4048L46.0305 53.9888L40.331 57.967C39.8913 58.2739 39.3758 58.4545 38.8406 58.489C38.3054 58.5235 37.771 58.4106 37.2956 58.1626C36.82 57.9146 36.4216 57.541 36.1436 57.0824C35.8656 56.6238 35.7186 56.0978 35.7187 55.5615V32.4385C35.7186 31.9023 35.8656 31.3762 36.1436 30.9176C36.4216 30.459 36.82 30.0854 37.2956 29.8374C37.771 29.5894 38.3054 29.4766 38.8406 29.511C39.3758 29.5455 39.8913 29.7261 40.331 30.033L46.0305 34.0112L56.8939 41.5945C57.2812 41.8648 57.5974 42.2246 57.8158 42.6433C58.0342 43.0621 58.1483 43.5274 58.1483 43.9996C58.1483 44.4719 58.0342 44.9372 57.8158 45.356C57.5974 45.7747 57.2812 46.1345 56.8939 46.4048Z" fill="white"/>
</g>
</g>
</g>
</g>
<defs>
<clipPath id="clip0_145_129">
<rect width="88" height="88" fill="white"/>
</clipPath>
</defs>
</svg>
